<svg xmlns="http://www.w3.org/2000/svg" version="1.1" xmlns:xlink="http://www.w3.org/1999/xlink" xmlns:svgjs="http://svgjs.dev/svgjs" viewBox="0 0 2400 800" opacity="1"><defs><linearGradient x1="50%" y1="0%" x2="50%" y2="100%" id="sssurf-grad"><stop stop-color="rgb(129 140 248)" stop-opacity="1" offset="0%"></stop><stop stop-color="rgb(79 70 229)" stop-opacity="1" offset="100%"></stop></linearGradient></defs><g fill="url(#sssurf-grad)" transform="matrix(1,0,0,1,0,-77.22021484375)"><path d="M 0 383.858977086976 Q 178.9101005726464 450 400 299.30435801349375 Q 603.6514113831961 450 800 379.0162566193085 Q 1023.7758579994296 450 1200 341.7491682391959 Q 1486.6781727214925 450 1600 242.60827040327123 Q 1815.994827240197 450 2000 236.44044745602207 Q 2104.666909773312 450 2400 319.25867815146796 L 2400 800 L 0 800 L 0 374.5228328130487 Z" transform="matrix(1,0,0,1,0,53)" opacity="0.05"></path><path d="M 0 383.858977086976 Q 178.9101005726464 450 400 299.30435801349375 Q 603.6514113831961 450 800 379.0162566193085 Q 1023.7758579994296 450 1200 341.7491682391959 Q 1486.6781727214925 450 1600 242.60827040327123 Q 1815.994827240197 450 2000 236.44044745602207 Q 2104.666909773312 450 2400 319.25867815146796 L 2400 800 L 0 800 L 0 374.5228328130487 Z" transform="matrix(1,0,0,1,0,106)" opacity="0.29"></path><path d="M 0 383.858977086976 Q 178.9101005726464 450 400 299.30435801349375 Q 603.6514113831961 450 800 379.0162566193085 Q 1023.7758579994296 450 1200 341.7491682391959 Q 1486.6781727214925 450 1600 242.60827040327123 Q 1815.994827240197 450 2000 236.44044745602207 Q 2104.666909773312 450 2400 319.25867815146796 L 2400 800 L 0 800 L 0 374.5228328130487 Z" transform="matrix(1,0,0,1,0,159)" opacity="0.53"></path><path d="M 0 383.858977086976 Q 178.9101005726464 450 400 299.30435801349375 Q 603.6514113831961 450 800 379.0162566193085 Q 1023.7758579994296 450 1200 341.7491682391959 Q 1486.6781727214925 450 1600 242.60827040327123 Q 1815.994827240197 450 2000 236.44044745602207 Q 2104.666909773312 450 2400 319.25867815146796 L 2400 800 L 0 800 L 0 374.5228328130487 Z" transform="matrix(1,0,0,1,0,212)" opacity="0.76"></path><path d="M 0 383.858977086976 Q 178.9101005726464 450 400 299.30435801349375 Q 603.6514113831961 450 800 379.0162566193085 Q 1023.7758579994296 450 1200 341.7491682391959 Q 1486.6781727214925 450 1600 242.60827040327123 Q 1815.994827240197 450 2000 236.44044745602207 Q 2104.666909773312 450 2400 319.25867815146796 L 2400 800 L 0 800 L 0 374.5228328130487 Z" transform="matrix(1,0,0,1,0,265)" opacity="1.00"></path></g></svg>